<svg xmlns="http://www.w3.org/2000/svg" enable-background="new 0 0 1024 1024" viewBox="0 0 1024 1024" id="FaceWash">
  <path d="M875.58,515.86l-14.64-3.26c17.16-77.04,19.95-138.11,8.78-192.19c-13.77-66.72-50.62-123.29-101.1-155.19
			c-16.88-10.67-36.66-19.48-58.78-26.18c-53.24-16.13-110.29-17.06-164.96-2.68c-25.11,6.6-47.18,16.04-67.47,28.87l-8.01-12.68
			c21.61-13.66,45.05-23.7,71.67-30.69c57.36-15.08,117.22-14.1,173.12,2.84c23.41,7.09,44.42,16.46,62.44,27.86
			c53.9,34.06,93.19,94.14,107.78,164.83C896.02,373.6,893.22,436.67,875.58,515.86z" fill="#aa7700" class="color000000 svgShape"></path>
  <path d="M624.47,900.84h-0.26c-26.64,0-48.86-11-68.91-22.89c-53.07-31.49-97.84-76.92-129.48-131.38
			c-0.72-1.24-1.07-2.67-1.01-4.11l0.56-12.39c0.27-5.88,0.53-11.82,0.81-17.82c1.44-31.46,2.78-59.52,4.1-85.79l0.18-3.51
			c0.26-5.13,0.52-10.27,0.79-15.44c1.5-28.81,3.03-56.5,4.54-82.32c3.3-56.12,6.82-107.54,10.47-152.81
			c0.59-7.25,1.18-14.42,1.79-21.52c0-0.01,0-0.02,0-0.02c0-0.07,0.01-0.15,0.02-0.22c1.72-20.13,3.38-38.24,5.1-55.35
			c0.18-1.8,1-3.47,2.32-4.71c38.75-36.56,91.81-58.39,141.93-58.39c9.02,0,18.03,0.69,26.79,2.06
			c32.75-5.12,67.72-0.65,101.22,12.95c31.38,12.74,60.41,33.32,81.74,57.95c36.15,41.73,57.68,97.29,65.83,169.86
			c1.43,12.72,2.43,25.48,2.97,37.93c2.9,67.13-7.03,129.49-29.52,185.37c0,0,0,0,0,0c-30.29,75.24-84.66,139.04-153.08,179.65
			C673.34,889.84,651.12,900.84,624.47,900.84z M439.9,740.93c30.29,51.42,72.8,94.31,123.05,124.12
			c18.2,10.8,38.22,20.79,61.25,20.79h0.26c23.03,0,43.05-9.99,61.25-20.79c65.61-38.93,117.75-100.14,146.82-172.35
			c21.68-53.88,31.25-114.15,28.44-179.13c-0.52-12.11-1.5-24.53-2.89-36.9c-7.8-69.46-28.17-122.36-62.27-161.72
			c-42.48-49.05-110.96-75.46-170.41-65.73c-0.8,0.13-1.62,0.13-2.42,0c-8.35-1.37-16.95-2.06-25.58-2.06
			c-45.52,0-93.76,19.55-129.6,52.41c-1.61,16.18-3.18,33.3-4.79,52.23c0,0.01,0,0.01,0,0.02c0,0.08-0.01,0.15-0.02,0.23
			c-0.61,7.11-1.2,14.29-1.79,21.54c-3.64,45.16-7.16,96.47-10.45,152.48c-1.51,25.78-3.04,53.45-4.54,82.22
			c-0.27,5.16-0.53,10.3-0.79,15.42l-0.18,3.5c-1.32,26.24-2.66,54.28-4.1,85.72c-0.28,6-0.54,11.94-0.81,17.81L439.9,740.93z" fill="#aa7700" class="color000000 svgShape"></path>
  <path d="M624.34 765.31c-.1 0-.2 0-.3-.01-35.43-1.4-79.28-16.48-96.12-54.6-1.29-2.92-.59-6.34 1.75-8.52 2.34-2.18 5.8-2.63 8.62-1.14 5.88 3.11 14.2 2.89 24.73-.66 2.73-.92 5.42-1.96 8.28-3.06 7.33-2.83 14.92-5.75 23.32-6.66 10.03-1.09 21.81 1.42 29.72 7.88 7.9-6.47 19.68-8.97 29.71-7.88 8.4.91 15.98 3.84 23.32 6.66 2.85 1.1 5.55 2.14 8.28 3.06 10.53 3.55 18.85 3.78 24.73.66 2.82-1.5 6.28-1.04 8.62 1.14s3.04 5.6 1.75 8.52c-16.84 38.12-60.69 53.2-96.12 54.6C624.54 765.3 624.44 765.31 624.34 765.31zM549.87 718.18c17.47 21.86 48.45 31.03 74.47 32.12 26.02-1.09 56.99-10.26 74.47-32.12-5.52-.22-11.51-1.41-17.95-3.58-3.03-1.02-6-2.17-8.88-3.28-6.73-2.59-13.09-5.05-19.54-5.75-8.11-.89-18.6 2.08-21.28 7.9-1.23 2.66-3.88 4.36-6.81 4.36-2.93 0-5.58-1.7-6.81-4.36-2.69-5.82-13.17-8.78-21.28-7.9-6.45.7-12.81 3.15-19.54 5.75-2.88 1.11-5.85 2.25-8.88 3.28C561.38 716.77 555.39 717.96 549.87 718.18zM648.31 646.83l-14.65-3.2c1.56-7.13 7.11-13.21 14.15-15.48 6.98-2.25 15.06-.63 20.59 4.13l-9.79 11.37c-1.6-1.38-4.15-1.88-6.19-1.22C650.43 643.06 648.74 644.88 648.31 646.83zM600.36 646.83c-.43-1.95-2.11-3.77-4.1-4.41-2.05-.66-4.59-.16-6.2 1.22l-9.79-11.37c5.53-4.76 13.61-6.38 20.59-4.13 7.04 2.27 12.59 8.35 14.15 15.48L600.36 646.83zM671.46 506.04l-14.08-5.16c10.46-28.54 43.38-45.54 74.93-38.7 9.03 1.96 17.51 5.61 25.71 9.14 12.27 5.29 23.85 10.28 35.53 8.85l1.82 14.89c-15.7 1.92-29.72-4.13-43.28-9.97-7.89-3.4-15.34-6.61-22.95-8.26C704.73 471.55 679.4 484.37 671.46 506.04zM577.22 506.04c-7.94-21.66-33.27-34.49-57.67-29.2-7.61 1.65-15.06 4.86-22.95 8.26-13.56 5.84-27.58 11.88-43.28 9.97l1.82-14.89c11.67 1.42 23.26-3.57 35.53-8.85 8.2-3.53 16.68-7.19 25.71-9.14 31.55-6.84 64.46 10.16 74.93 38.7L577.22 506.04zM481.52 156.08h-341.4c-4.14 0-7.5-3.36-7.5-7.5V109.8c0-4.14 3.36-7.5 7.5-7.5h341.4c4.14 0 7.5 3.36 7.5 7.5v38.78C489.02 152.73 485.67 156.08 481.52 156.08zM147.62 141.08h326.4V117.3h-326.4V141.08zM310.83 921.7c-29.17 0-56.63-1.37-77.33-3.87-28.25-3.4-38.26-7.76-38.26-16.66V784.19c0-2.83 1.59-5.41 4.11-6.69 2.52-1.28 5.55-1.03 7.83.64 3.09 2.27 8.14 3.24 16.86 3.24h173.59c8.73 0 13.77-.97 16.87-3.24 2.28-1.67 5.3-1.92 7.83-.64 2.52 1.28 4.11 3.86 4.11 6.69v116.98c0 8.9-10.01 13.25-38.26 16.66C367.45 920.33 339.99 921.7 310.83 921.7zM210.23 898.1c9.34 3.85 46.5 8.6 100.59 8.6s91.25-4.75 100.59-8.6V795.27c-3.84.77-8.34 1.12-13.8 1.12H224.03c-5.45 0-9.95-.35-13.79-1.11V898.1z" fill="#aa7700" class="color000000 svgShape"></path>
  <rect width="216.18" height="15" x="202.73" y="859.14" fill="#aa7700" class="color000000 svgShape"></rect>
  <rect width="127.49" height="15" x="247.07" y="550.15" fill="#aa7700" class="color000000 svgShape"></rect>
  <rect width="73.49" height="15" x="274.08" y="591.89" fill="#aa7700" class="color000000 svgShape"></rect>
  <path d="M397.62,797.9H224.03c-12.32,0-19.77-1.78-25.73-6.14c-3.31-2.41-6.11-5.67-8.77-10.23c-6.49-11.16-7.05-23.74-7.54-34.84
			c-8.84-200.73-23.56-480.94-49.19-596.48c-0.49-2.22,0.05-4.54,1.47-6.32c1.42-1.77,3.58-2.81,5.85-2.81h341.4
			c2.28,0,4.43,1.03,5.85,2.81c1.42,1.78,1.96,4.11,1.46,6.33c-0.44,1.98-0.88,4-1.31,6.07c-3.47,16.66-6.89,37.13-10.15,60.84
			c-0.45,3.27-0.9,6.6-1.34,9.98c-2.71,20.65-5.38,44.09-7.93,69.65c-1.71,17.01-3.37,35.02-5.07,55.04c0,0.01,0,0.01,0,0.02
			c0,0.08-0.01,0.15-0.02,0.23c-0.61,7.11-1.2,14.29-1.79,21.54c-3.64,45.16-7.16,96.47-10.45,152.48
			c-1.52,25.78-3.04,53.45-4.54,82.22c-0.27,5.16-0.53,10.3-0.79,15.42l-0.18,3.5c-1.32,26.24-2.66,54.28-4.1,85.72
			c-0.28,6-0.54,11.94-0.81,17.81l-0.56,12.4c-0.02,0.73-0.06,1.55-0.1,2.37l-0.05,1.16c-0.28,6.53-0.61,12.41-1.7,18.36
			c-1.2,6.41-3.11,11.8-5.85,16.5c-2.63,4.53-5.42,7.79-8.76,10.23c-1.04,0.76-2.09,1.42-3.19,2
			C414.73,796.66,407.98,797.9,397.62,797.9z M149.38,156.08c24.69,121.67,38.96,393.73,47.6,589.94c0.44,9.83,0.89,20,5.52,27.96
			c1.6,2.74,3.03,4.49,4.65,5.66c3.12,2.29,8.17,3.26,16.89,3.26h173.59c7.62,0,12.41-0.74,15.52-2.4c0.48-0.25,0.91-0.52,1.35-0.84
			c1.64-1.2,3.07-2.95,4.65-5.67c1.87-3.2,3.19-7.02,4.06-11.68c0.91-4.98,1.2-10.32,1.46-16.28l0.05-1.19
			c0.03-0.76,0.07-1.52,0.09-2.28l0.56-12.48c0.27-5.88,0.53-11.82,0.81-17.82c1.44-31.46,2.78-59.52,4.1-85.79l0.18-3.51
			c0.26-5.13,0.52-10.27,0.79-15.44c1.5-28.81,3.03-56.5,4.54-82.32c3.3-56.12,6.82-107.54,10.47-152.81
			c0.59-7.25,1.18-14.42,1.79-21.52c0-0.01,0-0.01,0-0.02c0-0.08,0.01-0.15,0.02-0.23c1.71-20.13,3.38-38.24,5.1-55.35
			c2.57-25.71,5.26-49.3,7.99-70.12c0.45-3.41,0.9-6.76,1.36-10.06c3.13-22.72,6.4-42.54,9.74-59H149.38z" fill="#aa7700" class="color000000 svgShape"></path>
  <g fill="#aa7700" class="color000000 svgShape">
    <path d="M310.82,473.01c-37.22,0-67.5-30.28-67.5-67.5s30.28-67.5,67.5-67.5s67.5,30.28,67.5,67.5S348.04,473.01,310.82,473.01z
			 M310.82,353.01c-28.95,0-52.5,23.55-52.5,52.5s23.55,52.5,52.5,52.5s52.5-23.55,52.5-52.5S339.77,353.01,310.82,353.01z" fill="#aa7700" class="color000000 svgShape"></path>
  </g>
  <g fill="#aa7700" class="color000000 svgShape">
    <polygon points="423.84 766.97 423.07 763.63 430.57 763.63 437.32 760.39 430.69 763.63 438.07 763.63 430.68 763.63" fill="#aa7700" class="color000000 svgShape"></polygon>
  </g>
</svg>
