<svg xmlns="http://www.w3.org/2000/svg" id="haircolor" enable-background="new 0 0 64 64" viewBox="0 0 64 64">
  <path fill="#aa7700" d="M41.6378059,25.6780472l-1.5023499,1.471096c-0.1461334,0.1424828-0.3370781,0.2137241-0.5270462,0.2137241
		c-0.192894,0-0.3848152-0.0731678-0.5319176-0.2185383c-0.2903137-0.290741-0.2883682-0.7586231,0.0048714-1.0464764
		l1.5031395-1.4718781l-1.1032295-1.1018925l-1.5027161,1.4714565c-0.1461296,0.1424828-0.3370743,0.2137241-0.5270462,0.2137241
		c-0.1928902,0-0.3848114-0.0731659-0.5319176-0.2185364c-0.2903137-0.2907429-0.2883644-0.7586231,0.0048714-1.0464764
		l1.5035095-1.4722385l-1.1037178-1.1024342l-1.502594,1.4713955c-0.1461296,0.1424828-0.3370743,0.2137241-0.5270462,0.2137241
		c-0.192894,0-0.3848114-0.0731659-0.5319176-0.2185364c-0.2903137-0.2907429-0.2883644-0.7586231,0.0048714-1.0464764
		l1.5034447-1.4721794l-1.103714-1.1023731l-1.502533,1.4712753c-0.1461334,0.1424828-0.3370781,0.2137241-0.5270462,0.2137241
		c-0.192894,0-0.3848114-0.0731678-0.5319176-0.2185383c-0.2903137-0.290741-0.2883644-0.7586231,0.0048714-1.0464745
		l1.5033226-1.4720592l-1.1043243-1.1029758l-1.5037518,1.4717579c-0.1451569,0.1424828-0.3361015,0.2137241-0.5260715,0.2137241
		c-0.1928921,0-0.3848114-0.0731678-0.5319176-0.2195015c-0.2903137-0.2897778-0.2883644-0.7576599,0.005846-1.0455132
		l1.5035667-1.4715767l-0.0032864-0.0033092l2.8091888-2.7512712c-4.581152-2.5440464-10.1601944-2.3102255-13.4170322-2.0711699
		c-5.6135063,0.4119835-5.3028564,4.0798845-5.1901531,4.7860994c0.0119343,0.0747309-0.0156479,0.1492205-0.0714817,0.1981401
		c-3.625514,3.1757698-2.7845898,7.4654675-2.5865211,8.2703609c0.0203972,0.0829735-0.0064545,0.1685963-0.0703259,0.2231102
		l-2.9816227,2.5441666c0,0-1.0121412,0.6157799,0.0126638,2.0184021c0.4392462,0.6010971,0.4290781,1.0011673,0.2741184,1.262064
		c-0.4105072,0.6911125-0.664897,1.4703732-0.5089626,2.2653408c0.1033878,0.5271492,0.2725344,1.0424423,0.5489044,1.3475647
		c0.5892744,0.6504364,0.1030836,1.7768173-0.1243324,2.2168427c-0.080555,0.1557198-0.1219587,0.3208847-0.1181231,0.4974861
		c0.018693,0.8565788,0.5319176,3.1221581,5.5704575,2.3773155c5.1305428-0.7584457,6.9387951,9.10215,7.4031868,12.4510307
		c0.7964764-0.1672745,1.5257931-0.531723,2.0913811-1.0777054c2.0029716-1.9369926,3.5071468-5.7089272-0.7033787-12.6819038
		c-7.3718281-12.2043934-5.5636997-17.452177-5.4828396-17.6697521c0.1422348-0.3831615,0.5718594-0.5814819,0.9595947-0.4399624
		c0.3857861,0.139595,0.5845242,0.5593395,0.4481354,0.9405766c-0.0292263,0.0895329-1.5373001,4.9926624,5.3591156,16.4105167
		c4.959692,8.2110329,2.4209061,12.6077728,0.4656715,14.4975891c-1.0726032,1.0378113-2.5611916,1.606781-4.1218719,1.606781
		c-0.3458443,0-0.6955853-0.0279198-1.0443516-0.0847206l-1.7323227-0.2824974
		c1.5267658,3.0545883,4.4250336,4.8368225,7.2055435,5.8684959c3.2659092,1.2117043,6.7912617,1.5218201,10.2345371,1.0810127
		c17.9039879-2.2919312,15.1016808-10.1281662,14.5419388-13.4628487c-0.0375671-0.2237091-0.3191147-0.2383308-0.4090462-0.0312271
		c-0.4524574,1.0423241-1.8037453,1.2219315-1.8037453,1.2219315c-5.1102676-0.1911011-5.5549927-6.3228378-5.358387-10.0039787
		c0.083477-1.5630341-0.3406677-3.0804596-1.0336952-4.4719505c-0.9359703-1.8794098-0.8367844-3.9064159-0.8367844-3.9064159
		c-0.0032234-1.3849926-0.0937042-2.6540356-0.2452545-3.8386021l-0.3849945,0.3770237L41.6378059,25.6780472z
		 M33.7154274,35.089653c-2.1091614,0-3.8257141-1.6972733-3.8257141-3.782526c0-1.6539516,2.1851463-4.5113029,3.1242828-5.6636772
		c0.1734085-0.2117977,0.4286537-0.3321381,0.7014313-0.3321381c0.0019455,0,0.0029221,0,0.0038948,0
		c0.2737541,0.0009632,0.5289955,0.1232281,0.699482,0.3350258c0.9371872,1.1494865,3.1223335,4.0068378,3.1223335,5.6607895
		C37.5411377,33.3923798,35.824585,35.089653,33.7154274,35.089653z" class="color58595b svgShape"></path>
  <path fill="#aa7700" d="M31.386095 31.307127c0 1.270792 1.0453243 2.3037891 2.3293324 2.3037891 1.2840042 0 2.3293304-1.0329971 2.3293304-2.3037891 0-.6970081-.9362144-2.3528862-2.3293304-4.1522083C32.3232841 28.9542408 31.386095 30.6101189 31.386095 31.307127zM53.6574554 4.3471332c-.5046387-.5025396-1.3989601-.4544036-2.0399895.1116753l-8.2778435 7.3436236c-.7920303.7018232-1.8071556 1.0310726-2.722908.8751125l-2.1491051-.348505c-.3409729-.0567999-.7082481.0731668-.9868698.3456163l-3.4107018 3.3406372 7.5929756 7.5852661 3.4068031-3.3358231c.2825203-.2753372.4159851-.6411705.3585091-.9790859l-.346817-2.0746593c-.1539268-.9145851.1860733-1.9273653.9099083-2.7081308l7.5306244-8.1388302C54.1026688 5.7372999 54.1620979 4.8515983 53.6574554 4.3471332z" class="color58595b svgShape"></path>
</svg>
