<svg xmlns="http://www.w3.org/2000/svg" enable-background="new 0 0 512 512" viewBox="0 0 512 512" id="Lipstick">
  <path d="M443.884 508.583c-.799 2.026-2.772 3.359-4.958 3.359H294.77c-2.186 0-4.105-1.333-4.958-3.359-27.349-68.186-22.285-155.139 13.914-238.518 4.158-9.49 13.381-15.62 23.564-15.62h79.168c10.183 0 19.406 6.131 23.511 15.62C466.168 353.445 471.233 440.397 443.884 508.583zM225.517 266.76c-2.026-5.758-6.877-10.023-12.688-11.622v-21.111c0-10.289-8.317-18.606-18.606-18.713v-64.188c0-9.223-6.717-16.9-15.567-18.393V31.493c0-25.963-27.669-41.743-45.689-23.671l-13.968 14.021c-4.798 4.798-7.464 11.195-7.464 18.02v92.87c-8.797 1.493-15.567 9.17-15.567 18.393v64.188c-10.236.107-18.553 8.423-18.553 18.713v21.165c-5.811 1.546-10.662 5.811-12.688 11.569-23.99 68.186-16.953 153.539 19.352 234.2 2.985 6.664 9.703 10.982 17.113 10.982h87.858c7.41 0 14.128-4.318 17.113-10.982C242.47 420.299 249.508 334.946 225.517 266.76zM106.631 151.126c0-4.425 3.679-8.05 8.104-8.05h60.723c4.478 0 8.103 3.625 8.103 8.05v64.134h-76.929V151.126zM196.462 496.588c-1.279 2.825-4.212 4.691-7.41 4.691h-87.858c-3.252 0-6.131-1.866-7.41-4.691-35.133-78.209-42.063-160.683-18.979-226.31 1.066-3.092 4.105-5.171 7.57-5.171h125.497c3.465 0 6.504 2.079 7.571 5.171C238.525 335.905 231.595 418.379 196.462 496.588z" fill="#aa7700" class="color000000 svgShape"></path>
</svg>
