<svg xmlns="http://www.w3.org/2000/svg" viewBox="0 0 32 32" id="Care">
  <path fill="#aa7700" d="M11 1021.362c-.432 0-.77.197-1.093.469-.324.272-.632.641-.907 1.031-.548.78-1 1.677-1 2.5v3h6v-3c0-.816-.452-1.717-1-2.5a5.302 5.302 0 0 0-.906-1c-.323-.274-.66-.5-1.094-.5zm0 2c.37 0 1 .87 1 1.313v1.687h-2v-1.687c0-.452.63-1.313 1-1.313zm-3.656 6a.515.515 0 0 0-.344.5v5.5h2v-5.5h1v5.5h5v-5.5a.52.52 0 0 0-.5-.5H7.344zm-1 7a.515.515 0 0 0-.344.5v15c0 .262.238.5.5.5H9v-5h1v5h5.5a.52.52 0 0 0 .5-.5v-15a.52.52 0 0 0-.5-.5H10v9.5H9v-9.5H6.344zm12 6a.515.515 0 0 0-.344.5v9c0 .262.238.5.5.5H20v-10h-1.5a.41.41 0 0 0-.156 0zm2.656 0v10h4.5a.52.52 0 0 0 .5-.5v-9a.52.52 0 0 0-.5-.5H21z" color="#000" font-family="Sans" font-weight="400" overflow="visible" style="line-height:normal;-inkscape-font-specification:Sans;text-indent:0;text-align:start;text-decoration-line:none;text-transform:none;block-progression:tb;marker:none" transform="translate(0 -1020.362)" class="color373449 svgShape"></path>
</svg>
