<svg xmlns="http://www.w3.org/2000/svg" viewBox="0 0 512 512" id="mascara">
  <path d="M272.375 510.005L211.157 510.005C208.415 510.002 205.281 510.279 202.608 509.608L200.626 509.069C184.929 503.838 181.927 488.365 184.052 473.83C184.374 471.628 185.476 469.09 184.575 467.094L174.408 441.006C162.681 407.364 155.608 373.366 152.466 337.829L152.159 331.666C151.867 326.321 151.634 322.559 155.329 318.201C164.178 307.766 193.527 306.082 206.426 304.976C205.469 296.616 203.055 288.412 201.862 280.061C199.584 264.117 198.752 228.228 202.978 213.176C204.362 208.243 207.565 204.299 209.226 199.5C210.853 194.8 210.242 188.803 210.244 183.862L210.249 165.845C210.25 163.866 209.697 158.995 210.811 157.352L210.976 157.125C214.71 151.833 223.285 153.189 228.825 153.748L229.068 134.462L224.613 134.658C211.747 134.562 205.234 115.593 229.755 117.429L229.774 106.252C222.671 106.255 211.77 108.042 206.981 101.311C204.243 97.4632 206.807 92.6447 210.432 90.4183C214.519 87.9079 225.153 88.9222 229.951 90.0069L230.258 90.0791C230.6 89.7086 230.432 86.8456 230.436 86.1304L230.61 77.2928L227.97 77.1201C221.502 76.6757 211.867 76.7982 207.375 71.493C204.309 67.8714 205.882 63.5601 209.437 60.9221C214.853 56.9024 225.511 60.4939 231.589 61.3486L233.314 51.3101C227.742 50.739 219.666 50.0335 215.897 45.3241C213.036 41.7502 215.415 36.4244 218.781 34.1067C223.349 30.9607 230.932 33.3294 235.985 34.2796C237.467 31.2362 238.267 27.824 239.278 24.5982C236.855 24.283 233.828 24.0549 231.728 22.7218C223.66 17.5988 228.423 8.41346 237.402 7.32905C242.805 6.96545 247.858 10.7031 253.351 11.0441C261.949 11.5778 274.29 5.32849 280.087 10.6419C290.712 20.382 275.482 23.6492 272.574 26.7267C273.471 28.473 274.428 30.2359 275.125 32.0745C275.666 33.501 275.199 34.5214 276.862 34.2391C280.641 33.5973 284.558 32.4198 288.414 32.6372C293.667 32.9335 300.131 39.8486 296.952 44.9167C293.219 50.8684 285.684 49.6739 279.873 51.1861L280.491 56.3369C280.652 57.4677 281.307 61.0438 281.319 61.049C285.104 62.6922 305.192 53.3126 306.395 67.5527C307.007 74.806 297.007 75.9508 291.789 76.4963L282.746 77.3301C282.554 78.7816 282.846 80.5139 282.893 82L282.814 89.2639L291.689 89.2161C296.01 89.199 300.186 88.7142 303.828 91.5651C307.171 94.1818 307.354 99.1358 304.448 102.203C299.739 107.174 289.594 106.235 283.253 106.283C282.886 106.87 283.062 108.445 283.056 109.178L282.985 116.94C283.961 117.44 288.916 116.942 290.518 117.166L291 117.236C297.747 118.173 301.797 126.371 296.653 131.459C293.161 134.913 288.56 134.274 284.061 134.312L284.13 146.176C284.141 148.575 284.028 151.049 284.365 153.425C288.859 153.436 294.834 152.682 298.745 155.249C303.047 158.073 301.869 161.95 301.829 166.404L301.861 184.404C301.898 189.721 301.561 195.363 303.488 200.446C305.467 205.664 308.464 209.763 309.72 215.372C315.528 241.293 311.455 277.876 305.379 304.487L338.592 309.246C347.168 311.05 358.706 314.973 360.305 325.063C360.977 329.305 359.835 334.451 359.472 338.764C356.672 371.985 349.62 405.43 338.963 437.009L328.244 464.363C326.412 468.632 326.81 467.548 327.664 472.062C329.699 482.806 329.698 493.943 321.445 502.258C312.812 510.955 305.442 509.998 294.164 510.007L272.375 510.005ZM256.069 29.5284C253.006 30.5858 248.556 38.0844 252.435 38.4673L256.793 38.5463L261.778 38.1619C261.306 34.7576 260.393 29.398 256.069 29.5284ZM247.148 54.5589L247.154 64.6965L265.375 64.6719C266.303 62.9621 265.437 56.2382 265.246 54.5117L247.148 54.5589ZM245.381 80.4648C245.458 84.371 245.055 88.837 245.711 92.7118L267.25 92.4113L267.676 80.4598L245.381 80.4648ZM265.399 108.144L251.517 108.538C249.453 108.55 246.932 108.283 244.922 108.674L244.961 120.013L247.639 120.17L259.892 120.102C262.4 120.094 265.293 120.313 267.737 119.734L267.754 107.983L265.399 108.144ZM245.029 135.525L244.867 153.287L267.875 153.442C268.438 151.49 268.277 149.167 268.274 146.965L268.25 135.503L245.029 135.525ZM225.482 169.305L225.454 186.452C225.439 194.835 225.278 201.949 221.624 209.684C216.344 220.861 216.142 222.637 215.979 235.596L216.094 266.264C216.229 271.86 217.046 277.275 217.912 282.799L220.81 296.782C221.312 298.968 221.639 301.274 222.367 303.386L286.123 302.648L289.589 302.97C292.919 290.299 295.362 276.82 296.105 263.727L296.262 240.952C296.247 231.697 296.82 221.591 292.685 213.004C286.868 200.922 286.326 201.041 286.281 186.322L286.298 169.375L225.482 169.305ZM244.783 318.18C228.047 318.219 183.212 320.031 167.55 326.644C168.976 367.612 178.305 407.877 192.783 446.114L197.33 457.735C197.866 459.09 198.05 460.626 198.909 461.812L267.875 461.83L307.636 461.815C309.383 461.81 311.229 461.925 312.955 461.668C315.108 457.277 316.694 452.33 318.469 447.759L329.489 416C336.614 391.782 344.992 352.694 344.642 326.966C336.256 323.708 327.15 322.511 318.27 321.351L287.224 318.306L244.783 318.18ZM202.788 477.298L198.282 477.492C198.185 483.5 198.315 491.063 204.75 493.753L205.141 493.923C207.109 494.74 209.597 494.673 211.699 494.764L288.765 494.864C294.686 494.863 301.922 496.033 307.477 493.617L308.101 493.329C312.557 490.438 315.449 481.618 313.198 477.395L202.788 477.298Z" fill="#aa7700" class="color000000 svgShape"></path>
  <path d="M259.311 214.706C255.709 215.112 250.153 215.742 247.125 213.468 240.053 208.157 242.881 199.252 252.507 198.357 256.12 198.22 261.495 197.86 264.514 200.075 270.959 204.803 268.545 213.818 259.311 214.706zM250.844 278.723L249.625 278.501C239.941 276.22 242.451 263.542 242.452 256.163L242.488 244.656C242.589 237.754 243.295 229.444 251.163 227.274 254.596 227.222 258.393 230.773 258.72 234.138 258.997 236.998 258.365 240.066 258.327 242.959L258.3 262.97C258.337 269.569 259.621 277.856 250.844 278.723z" fill="#aa7700" class="color000000 svgShape"></path>
</svg>
