<svg xmlns="http://www.w3.org/2000/svg" viewBox="0 0 64 64" id="StraightRazor">
  <path fill="#aa7700" d="M22.4 30.1c-3.1 2-6.7 3-10.4 3-3.1 0-6.1-.7-8.8-2.1-.6-.3-.6-.8-.6-1s.1-.7.6-1L40 12.8l.3-.1c1.3-.6 4.8-2.2 7.1-2.2 0 1.1-.1 2.1-.1 3.1 0 .3-.1.5-.1.8L22.4 30.1zm32.3-9c-.1 5.3-1 10.3-2.6 15.1-1.8 5.4-4.2 10.1-7.2 14.1-1.1 1.7-2.4 3.2-3.8 4.7-.4.5-.8 1-1.2 1.4-1.2 1.3-2.5 2.5-3.9 3.8-.6.6-1.3 1.2-1.9 1.7-1.4 1.3-3.2 2-5.1 2-2.1 0-4-.8-5.4-2.3-2.8-3-2.7-7.7.3-10.5.3-.3.7-.6 1-.8l.8-.5c.6-.4 1.3-.8 2-1.2 1.1-.7 2.2-1.3 3.3-2.1.5-.4.9-.7 1.4-1.1 1.2-.9 2.4-1.8 3.4-2.9 2.9-2.5 5.4-5.8 7.9-9.9 2.1-3.6 3.7-7.8 4.7-12.2.2-.7.3-1.4.4-2.1.1-.4.1-.8.2-1.2v-.3c.1-1 .3-2 .4-3.1.2-2.2.2-4.6 0-6.7v-.3c0-.5.1-.9.4-1.3.4-.2.8-.4 1.3-.4h.1c.8 0 1.5.5 1.7 1.3.7 2.3 1.1 4.6 1.5 7.4.1 1.3.2 2.6.3 3.7v3.7zm5-16.3-4.1 3.5-.6-2.4L61.2 0c.5 1.7 0 3.6-1.5 4.8z" class="color010101 svgShape"></path>
</svg>
