<svg xmlns="http://www.w3.org/2000/svg" viewBox="0 0 96 96" id="HairSalon">
  <path d="M79.04 5c-5.184.668-24.72 23.072-31.446 33.05a24.483 24.483 0 0 0-2.375 4.458L33.991 49.7a1.11 1.11 0 0 1-1.62-.484A8.694 8.694 0 0 0 31.733 48c-3.481-5.548-11.954-6.5-18.925-2.127S3.008 58.291 6.49 63.84s10.623 4.38 17.594.006a31.088 31.088 0 0 0 3.46-2.5 36.135 36.135 0 0 1 14.04-7.212l.385-.102-.102.386a36.134 36.134 0 0 1-7.212 14.038 31.097 31.097 0 0 0-2.5 3.461c-4.374 6.97-5.543 14.113.006 17.594s13.592.653 17.966-6.318S53.548 67.748 48 64.267a8.7 8.7 0 0 0-1.216-.638 1.11 1.11 0 0 1-.484-1.62l7.192-11.228a24.487 24.487 0 0 0 4.458-2.375C67.928 41.679 90.332 22.144 91 16.959L62.737 33.263ZM27.212 53.54a19.358 19.358 0 0 1-6.38 5.862 19.36 19.36 0 0 1-8.054 3.195c-2.314.183-3.21-.724-3.782-1.634-2.094-3.338.348-8.8 5.332-11.926s10.963-2.95 13.057.387c.572.911.998 2.113-.173 4.116Zm19.365 15.076c3.337 2.094 3.515 8.073.387 13.057s-8.588 7.426-11.926 5.332c-.91-.572-1.817-1.468-1.634-3.782a19.36 19.36 0 0 1 3.195-8.053 19.359 19.359 0 0 1 5.862-6.381c2.004-1.171 3.205-.745 4.116-.173Zm6.833-22.118a2.768 2.768 0 1 1 0-3.914 2.768 2.768 0 0 1 0 3.914Z" fill="#aa7700" class="color000000 svgShape"></path>
</svg>
