<svg xmlns="http://www.w3.org/2000/svg" enable-background="new 0 0 512 512" viewBox="0 0 512 512" id="beard">
  <path d="M511.847,142.193c-0.165,4.091-3.02,7.385-7.083,8.182c-2.801,0.549-5.518-0.219-7.495-1.949c-0.026,0.165-0.026,0.329-0.055,0.494c-1.675,25.56-6.204,93.481-60.152,171.59c-4.271,6.201-14.248,4.535-15.842-2.938c-0.905-4.365-2.909-7.961-6.15-11.091c-3.486,21.799-12.436,49.089-34.812,66.384c-6.82,5.236-16.154-1.174-13.892-9.334c4.64-16.966,3.597-33.934-2.855-48.897c-1.537,37.804-7.495,61.552-30.172,90.462c-5.486,7.01-16.709,2.425-15.731-6.314c1.098-10.076-0.247-17.818-4.118-23.501c-2.8,13.864-10.762,46.343-28.086,76.213c-13.022,22.424-45.758,22.47-58.807,0c-17.352-29.87-25.286-62.349-28.086-76.213c-3.872,5.683-5.217,13.425-4.118,23.501c0.922,8.789-10.268,13.296-15.732,6.314c-22.705-28.909-28.635-52.657-30.172-90.462c-6.451,14.99-7.495,31.929-2.855,48.897c2.258,8.146-7.079,14.565-13.892,9.334c-22.375-17.297-31.353-44.586-34.812-66.384c-3.239,3.13-5.244,6.727-6.15,11.091c-1.594,7.482-11.575,9.132-15.842,2.938c-53.948-78.107-58.478-146.029-60.18-171.59c0-0.165,0-0.329-0.027-0.494c-1.977,1.729-4.695,2.499-7.495,1.949c-4.064-0.797-6.918-4.091-7.082-8.182c-1.126-25.834,3.953-51.971,14.66-75.526c7.67-16.918,30.641-19.689,42.225-4.887c20.233,25.862,37.393,38.903,52.465,39.892c21.816,1.419,35.938-23.191,52.054-33.879c48.303-32.027,140.181-32.293,188.886,0c16.418,10.944,30.172,35.326,52.054,33.879c15.073-0.989,32.232-14.029,52.465-39.892c5.436-6.946,13.919-10.488,22.65-9.444c8.648,1.044,15.979,6.397,19.575,14.332C507.893,90.222,512.973,116.331,511.847,142.193z" fill="#aa7700" class="color000000 svgShape"></path>
</svg>
