<svg xmlns="http://www.w3.org/2000/svg" viewBox="0 0 48 48" id="beauty-cream">
  <path fill="#231f20" d="M45 16.78v-3.78c0-1.3-.84-2.4-2-2.82v-5.18c0-1.65-1.35-3-3-3h-10.76c-1.23 0-2.24 1-2.24 2.24 0 .85.47 1.62 1.24 2l2.21 1.11c.34.17.55.51.55.89v1.95c-1.16.41-2 1.51-2 2.82v3.78c-.61.55-1 1.34-1 2.22v24c0 1.65 1.35 3 3 3h12c1.65 0 3-1.35 3-3v-24c0-.88-.39-1.67-1-2.22zm-15.87-12.33c-.08-.04-.13-.12-.13-.21 0-.13.11-.24.24-.24h10.76c.55 0 1 .45 1 1v5h-8v-1.76c0-1.14-.64-2.17-1.66-2.68l-2.21-1.1zm1.87 8.55c0-.55.45-1 1-1h10c.55 0 1 .45 1 1v3h-12v-3zm13 30c0 .55-.45 1-1 1h-12c-.55 0-1-.45-1-1v-24c0-.55.45-1 1-1h12c.55 0 1 .45 1 1v24zM24 30.18v-1.18c0-1.34-.88-2.46-2.09-2.84.41-3.21-2.65-6.03-2.79-6.15-.23-.21-.55-.27-.85-.22-.3.05-.57.26-.72.53 0 .01-.74 1.29-4.3 1.94l-.75.14c-2.71.48-5.26.94-6.25 2.46-.27.41-.39.88-.38 1.38-1.09.45-1.86 1.52-1.86 2.77v1.18c-1.16.41-2 1.51-2 2.82v10c0 1.65 1.35 3 3 3h18c1.65 0 3-1.35 3-3v-10c0-1.3-.84-2.4-2-2.82zm-16.07-4.25c.51-.79 3.06-1.25 4.92-1.58l.76-.14c2.62-.48 4.08-1.3 4.87-1.98.71.86 1.66 2.33 1.43 3.76H7.9s.01-.05.03-.07zm-1.93 3.07c0-.55.45-1 1-1h14c.55 0 1 .45 1 1v1H6v-1zm18 14c0 .55-.45 1-1 1H5c-.55 0-1-.45-1-1v-10c0-.55.45-1 1-1h18c.55 0 1 .45 1 1v10zM20 16c2.76 0 5-2.24 5-5 0-4.36-4.12-8.53-4.29-8.71-.39-.39-1.02-.39-1.41 0-.18.18-4.29 4.34-4.29 8.71 0 2.76 2.24 5 5 5zm0-11.5c1.08 1.29 3 3.94 3 6.5 0 1.65-1.35 3-3 3s-3-1.35-3-3c0-2.56 1.92-5.21 3-6.5zM9 20c2.21 0 4-1.79 4-4 0-3.38-3.16-6.57-3.29-6.71-.39-.39-1.02-.39-1.41 0-.13.13-3.29 3.33-3.29 6.71 0 2.21 1.79 4 4 4zm0-8.48c.8 1 2 2.78 2 4.48 0 1.1-.9 2-2 2s-2-.9-2-2c0-1.7 1.2-3.48 2-4.48z"></path>
  <path fill="#231f20" d="M40 38h-6c-.55 0-1 .45-1 1s.45 1 1 1h6c.55 0 1-.45 1-1s-.45-1-1-1zM40 35h-6c-.55 0-1 .45-1 1s.45 1 1 1h6c.55 0 1-.45 1-1s-.45-1-1-1zM17 40h-6c-.55 0-1 .45-1 1s.45 1 1 1h6c.55 0 1-.45 1-1s-.45-1-1-1zM17 37h-6c-.55 0-1 .45-1 1s.45 1 1 1h6c.55 0 1-.45 1-1s-.45-1-1-1z"></path>
</svg>
