<svg xmlns="http://www.w3.org/2000/svg" viewBox="0 0 1024 1024" id="Haircolor">
  <path fill="none" stroke="#aa7700" stroke-miterlimit="10" stroke-width="30" d="M418.51 224.56c10.11-5.07 25.13-10.79 45.59-14.09 30.31-4.89 66.21.45 90.85-13.77" class="colorStroke000000 svgStroke"></path>
  <path fill="none" stroke="#aa7700" stroke-miterlimit="10" stroke-width="30" d="M399.32 780.45c-6.45 40.72-20.17 76.04-15.38 96.02 0 0-22.61-25.43-21.2-33.92 0 0-19.79 72.08 1.41 96.1 0 0-46.63-5.65-57.94-73.49 0 0-35.33-8.47-66.42 26.85 0 0 12.71-86.2-1.42-111.64 0 0-43.8 96.1-131.43 94.68 0 0 73.49-79.13 73.49-114.46 0 0-16.96 36.74-62.19 38.15 0 0 25.45-33.92 31.1-63.6 5.65-29.67 35.33-66.42 36.74-113.05 1.42-46.64 11.31-145.57 11.31-145.57l-.01.01c-.91.64-44.14 46.92-57.94 83.28-5.26-23.24-35.16-86.06 58.34-186.97 0 0 33.14-33.15 33.63-91.03.97-113.33 89.71-176.34 226.02-193.93 91.66-11.83 113.21 20.34 116.91 45.68" class="colorStroke000000 svgStroke"></path>
  <path fill="none" stroke="#aa7700" stroke-miterlimit="10" stroke-width="30" d="M375.84 649.58c-19.05-47.65-19.48-79.32 13.75-156.1 40.98-94.69-1.25-196.75-5.5-227.84-4.24-31.09-2.98-114.17 63.44-150.91 60.24-33.32 107.7-10.85 123.39 12.59" class="colorStroke000000 svgStroke"></path>
  <path fill="none" stroke="#aa7700" stroke-miterlimit="10" stroke-width="30" d="M568.01 128.17s1.02-.37 2.91-.84c1.4 2.08 2.54 4.18 3.42 6.23.14.31.27.64.39.95 9.89 25.44-8.01 55.39-19.78 62.19m-.01 0c-2.78 12.5-3.45 43.18 32.67 70.97 31.78 24.45 44.43 107.44 44.43 165.44m-59.1-306.26c17.46-3.74 77.49-8.65 117.48 86.64 17.94 42.75 28.27 84.09 34.18 118.93" class="colorStroke000000 svgStroke"></path>
  <path fill="none" stroke="#aa7700" stroke-miterlimit="10" stroke-width="30" d="M908.69 135.84 715.2 470.06a194.686 194.686 0 0 0-25.92 108.09l1.82 33.8c1.85 34.26-6.84 68.15-24.76 97.17-2.14 3.48-4.42 6.89-6.83 10.22l-24.9 34.4c-.59.81-1.72.99-2.53.41l-111.29-80.52-116.08-83.97a1.82 1.82 0 0 1-.41-2.53l24.89-34.42a167.796 167.796 0 0 1 92.11-63.6l32.67-8.85a194.711 194.711 0 0 0 89.49-52.99c1.73-1.79 3.41-3.6 5.05-5.45l256.9-288.35c1.64-1.81 4.5.26 3.28 2.37zM416.23 598l-74.39 102.82M457.1 627.56l-74.38 102.82M538.83 686.69l-74.38 102.82M497.97 657.13l-74.39 102.82M579.7 716.26l-74.38 102.82M620.56 745.83l-74.38 102.82" class="colorStroke000000 svgStroke"></path>
</svg>
