<svg xmlns="http://www.w3.org/2000/svg" viewBox="0 0 2000 2000" id="ManMustache">
  <g fill="#aa7700" class="color000000 svgShape">
    <g id="_Слой_1" fill="#aa7700" class="color000000 svgShape">
      <path d="M1695.6292,928.8516c-1.9224-2.6181-7.7687-10.5763-14.5649-7.0856-1.0043.5159-5.8944,3.4713-3.4536,10.9548,14.9423,45.8339,4.5883,84.8427-27.7014,104.3404-57.9743,34.9941-179.2186,5.7573-319.4065-138.4754-49.9243-51.3661-108.9753-85.5866-166.2771-96.3547-55.5317-10.4445-104.774,1.235-138.6511,32.8702-9.6762,9.0394-18.2477,19.2698-25.5747,30.5238-7.3298-11.254-15.8999-21.4872-25.5747-30.5238-33.8759-31.6352-83.1179-43.3147-138.6511-32.8702-57.3018,10.7682-116.3532,44.9886-166.2771,96.3547-140.1932,144.2355-261.4379,173.4695-319.4079,138.4754-32.2911-19.4977-42.6465-58.504-27.7-104.3404,2.4408-7.486-2.4493-10.4388-3.455-10.9548-6.7824-3.4988-12.6414,4.4731-14.5649,7.0856-18.7061,25.4525-35.4552,92.5016,35.0449,164.0982,69.5436,70.6274,182.2428,110.2154,309.2133,108.4923,133.7964-1.7675,257.0101-49.2229,329.5986-126.9471l1.9415-2.0775c3.5893-3.8473,7.0634-7.821,10.3416-11.8385,3.3327-4.119,6.4761-8.4575,9.4907-13.1062,3.0158,4.6512,6.1647,8.9953,9.5087,13.1309,3.2588,3.9928,6.7329,7.9665,10.325,11.8138l1.9401,2.0775c72.5886,77.7243,195.8009,125.1796,329.5947,126.9471,2.5973.0354,5.1714.052,7.7549.052,123.7872-.0028,233.34-39.3601,301.4637-108.5443,70.5001-71.5992,53.7493-138.6485,35.0421-164.0982Z" fill="#aa7700" class="color000000 svgShape"></path>
    </g>
  </g>
</svg>
